<svg width="25" height="24" viewBox="0 0 25 24" fill="none" xmlns="http://www.w3.org/2000/svg">
<path d="M19.4998 19.2C20.1363 19.2 20.7468 19.4529 21.1969 19.9029C21.6469 20.353 21.8998 20.9635 21.8998 21.6C21.8998 22.2365 21.6469 22.847 21.1969 23.2971C20.7468 23.7471 20.1363 24 19.4998 24C18.1678 24 17.0998 22.92 17.0998 21.6C17.0998 20.268 18.1678 19.2 19.4998 19.2ZM0.299805 0H4.2238L5.3518 2.4H23.0998C23.4181 2.4 23.7233 2.52643 23.9483 2.75147C24.1734 2.97652 24.2998 3.28174 24.2998 3.6C24.2998 3.804 24.2398 4.008 24.1558 4.2L19.8598 11.964C19.4518 12.696 18.6598 13.2 17.7598 13.2H8.81981L7.7398 15.156L7.7038 15.3C7.7038 15.3796 7.73541 15.4559 7.79167 15.5121C7.84793 15.5684 7.92424 15.6 8.00381 15.6H21.8998V18H7.4998C6.1678 18 5.0998 16.92 5.0998 15.6C5.0998 15.18 5.2078 14.784 5.3878 14.448L7.0198 11.508L2.6998 2.4H0.299805V0ZM7.4998 19.2C8.13632 19.2 8.74677 19.4529 9.19686 19.9029C9.64695 20.353 9.89981 20.9635 9.89981 21.6C9.89981 22.2365 9.64695 22.847 9.19686 23.2971C8.74677 23.7471 8.13632 24 7.4998 24C6.1678 24 5.0998 22.92 5.0998 21.6C5.0998 20.268 6.1678 19.2 7.4998 19.2ZM18.2998 10.8L21.6358 4.8H6.4678L9.2998 10.8H18.2998Z" fill="#262626"/>
<path d="M18.2998 10.8L21.6358 4.8H6.4678L9.2998 10.8H18.2998Z" fill="#262626"/>
</svg>
