<svg width="27" height="20" viewBox="0 0 27 20" fill="none" xmlns="http://www.w3.org/2000/svg">
<path id="Vector" d="M20.6998 17.7999C21.6958 17.7999 22.4998 16.9959 22.4998 15.9999C22.4998 15.0039 21.6958 14.1999 20.6998 14.1999C19.7038 14.1999 18.8998 15.0039 18.8998 15.9999C18.8998 16.9959 19.7038 17.7999 20.6998 17.7999ZM22.4998 6.9999H19.4998V9.9999H24.8518L22.4998 6.9999ZM6.2998 17.7999C7.2958 17.7999 8.0998 16.9959 8.0998 15.9999C8.0998 15.0039 7.2958 14.1999 6.2998 14.1999C5.3038 14.1999 4.4998 15.0039 4.4998 15.9999C4.4998 16.9959 5.3038 17.7999 6.2998 17.7999ZM23.0998 5.1999L26.6998 9.9999V15.9999H24.2998C24.2998 17.9919 22.6918 19.5999 20.6998 19.5999C18.7078 19.5999 17.0998 17.9919 17.0998 15.9999H9.8998C9.8998 17.9919 8.2918 19.5999 6.2998 19.5999C4.3078 19.5999 2.6998 17.9919 2.6998 15.9999H0.299805V2.7999C0.299805 1.4679 1.3678 0.399902 2.6998 0.399902H19.4998V5.1999H23.0998ZM2.6998 2.7999V13.5999H3.6118C4.2718 12.8679 5.2318 12.3999 6.2998 12.3999C7.3678 12.3999 8.3278 12.8679 8.9878 13.5999H17.0998V2.7999H2.6998Z" fill="black"/>
</svg>
