<svg width="25" height="23" viewBox="0 0 25 23" fill="none" xmlns="http://www.w3.org/2000/svg">
<path d="M12.4198 18.6502L12.2998 18.7702L12.1678 18.6502C6.46781 13.4782 2.6998 10.0582 2.6998 6.59023C2.6998 4.19023 4.4998 2.39023 6.89981 2.39023C8.7478 2.39023 10.5478 3.59023 11.1838 5.22223H13.4158C14.0518 3.59023 15.8518 2.39023 17.6998 2.39023C20.0998 2.39023 21.8998 4.19023 21.8998 6.59023C21.8998 10.0582 18.1318 13.4782 12.4198 18.6502ZM17.6998 -0.00976562C15.6118 -0.00976562 13.6078 0.962234 12.2998 2.48623C10.9918 0.962234 8.98781 -0.00976562 6.89981 -0.00976562C3.2038 -0.00976562 0.299805 2.88223 0.299805 6.59023C0.299805 11.1142 4.3798 14.8222 10.5598 20.4262L12.2998 22.0102L14.0398 20.4262C20.2198 14.8222 24.2998 11.1142 24.2998 6.59023C24.2998 2.88223 21.3958 -0.00976562 17.6998 -0.00976562Z" fill="#262626"/>
<path d="M12.4198 18.6502L12.2998 18.7702L12.1678 18.6502C6.46781 13.4782 2.6998 10.0582 2.6998 6.59023C2.6998 4.19023 4.4998 2.39023 6.89981 2.39023C8.7478 2.39023 10.5478 3.59023 11.1838 5.22223H13.4158C14.0518 3.59023 15.8518 2.39023 17.6998 2.39023C20.0998 2.39023 21.8998 4.19023 21.8998 6.59023C21.8998 10.0582 18.1318 13.4782 12.4198 18.6502Z" fill="#262626"/>
</svg>
